#File written by RizomUV 2020.0.89.gadc9742. Compilation :May  5 2020,11:18:49
mtllib cablepart:mtl
#begin vertices
v 0.01489573 1.948125 -13.9424
v 0.977934 1.66535 -13.9424
v 1.635212 0.9068185 -13.9424
v 1.778054 -0.08668774 -13.9424
v 1.361106 -0.9996651 -13.9424
v 0.5167533 -1.542303 -13.9424
v -0.4869357 -1.542309 -13.9424
v -1.331314 -0.9996653 -13.9424
v -1.748266 -0.08667216 -13.9424
v -1.605426 0.9068035 -13.9424
v -0.948146 1.665354 -13.9424
v 0.0148952 0.1668327 -13.9424
v -1.490332 2.509014 -2.214072
v -2.517662 1.32341 -2.214072
v -2.740922 -0.2293924 -2.214072
v -2.089229 -1.656402 -2.214072
v -0.7694901 -2.504546 -2.214072
v 0.7992815 -2.504546 -2.214072
v 2.11902 -1.656402 -2.214072
v 2.770713 -0.2293924 -2.214072
v 2.547454 1.32341 -2.214072
v 1.520123 2.509014 -2.214072
v -0.9273786 1.633041 -7.140273
v -1.058145 1.836518 -4.495537
v -0.8895738 1.574216 -5.947898
v -1.570489 0.8908518 -7.140273
v -1.71025 -0.08120497 -7.140273
v -1.302289 -0.9745149 -7.140273
v -0.4761308 -1.505454 -7.140273
v 0.5059223 -1.505454 -7.140273
v 1.332081 -0.9745149 -7.140273
v 1.740041 -0.08120497 -7.140273
v 1.60028 0.8908518 -7.140273
v 0.95717 1.633041 -7.140273
v 0.9193653 1.574216 -5.947898
v 1.087936 1.836518 -4.495537
v 0.01489573 2.950957 -2.214179
v 0.01489573 3.12877 -0
v -1.586448 2.658575 -0
v -2.679378 1.397258 -0
v -2.916897 -0.2546769 -0
v -2.223588 -1.772825 -0
v -0.8195845 -2.675121 -0
v 0.8493749 -2.675128 -0
v 2.253376 -1.772825 -0
v 2.946688 -0.254672 -0
v 2.709163 1.39728 -0
v 1.616242 2.65857 -0
v 0.01489573 1.909733 -7.140841
v 0.01489573 1.839792 -5.947827
v 0.01489573 2.151821 -4.494885
v -1.790505 0.9913293 -4.495537
v -1.506882 0.8618035 -5.947898
v -1.949661 -0.1156269 -4.495537
v -1.641035 -0.07125353 -5.947898
v -1.485085 -1.132908 -4.495537
v -1.249443 -0.9287232 -5.947898
v -0.5442742 -1.73753 -4.495537
v -0.4564305 -1.438361 -5.947898
v 0.5740657 -1.73753 -4.495537
v 0.4862219 -1.438361 -5.947898
v 1.514876 -1.132908 -4.495537
v 1.279234 -0.9287232 -5.947898
v 1.979452 -0.1156269 -4.495537
v 1.670827 -0.07125353 -5.947898
v 1.820296 0.9913293 -4.495537
v 1.536674 0.8618035 -5.947898
v 0.01489572 0.1668295 -0
#end vertices

#begin 96 textures vertices 
vt 0.719473 0.1380342 0
vt 0.7053582 0.08996298 0
vt 0.7194731 0.04189223 0
vt 0.7573378 0.009082667 0
vt 0.8069278 0.001953125 0
vt 0.8525005 0.0227655 0
vt 0.8795869 0.06491249 0
vt 0.8795869 0.1150139 0
vt 0.8525004 0.1571612 0
vt 0.8069273 0.1779735 0
vt 0.7573363 0.1708435 0
vt 0.7942735 0.08996333 0
vt 0.1658721 0.1182103 0
vt 0.1442272 0.1874414 0
vt 0.1293223 0.2565277 0
vt 0.1197674 0.3255226 0
vt 0.1147811 0.3945017 0
vt 0.1140414 0.4635523 0
vt 0.1176029 0.5327589 0
vt 0.1258664 0.6022002 0
vt 0.1395925 0.6719755 0
vt 0.1599802 0.7422671 0
vt 0.3951644 0.2045916 0
vt 0.2725756 0.1703973 0
vt 0.3394157 0.1953577 0
vt 0.3902189 0.2541229 0
vt 0.3858111 0.3042096 0
vt 0.3825962 0.354817 0
vt 0.3808876 0.4057758 0
vt 0.3808214 0.4568596 0
vt 0.3824095 0.5078273 0
vt 0.3855339 0.5584532 0
vt 0.3898897 0.6085663 0
vt 0.394852 0.6581149 0
vt 0.3392296 0.6670985 0
vt 0.2708835 0.6916271 0
vt 0.1954344 0.04751754 0
vt 0.09302916 0.001953125 0
vt 0.06191591 0.0785226 0
vt 0.03761254 0.1563033 0
vt 0.02021119 0.2339996 0
vt 0.008880827 0.3114486 0
vt 0.002903652 0.3887802 0
vt 0.001953125 0.4662602 0
vt 0.006150198 0.5441425 0
vt 0.01604461 0.6225446 0
vt 0.03249552 0.7012759 0
vt 0.05620242 0.7796917 0
vt 0.3993167 0.7072972 0
vt 0.3504091 0.1484505 0
vt 0.2899578 0.7445732 0
vt 0.2587222 0.2263688 0
vt 0.3309387 0.2454825 0
vt 0.2489635 0.2839672 0
vt 0.3244326 0.2974754 0
vt 0.242585 0.3424858 0
vt 0.3199822 0.3506277 0
vt 0.2392858 0.4014897 0
vt 0.3176624 0.4044043 0
vt 0.2389717 0.4606457 0
vt 0.317526 0.4583719 0
vt 0.2416883 0.5196451 0
vt 0.3196078 0.5121285 0
vt 0.2476126 0.5781434 0
vt 0.3239262 0.5652369 0
vt 0.2571013 0.6356935 0
vt 0.33048 0.6171481 0
vt 0.7133484 0.8517032 0
vt 0.7281228 0.3084554 0
vt 0.7318709 0.1588868 0
vt 0.7318709 0.7020766 0
vt 0.7295389 0.2589853 0
vt 0.7305048 0.6518594 0
vt 0.7309187 0.209128 0
vt 0.7269568 0.3576092 0
vt 0.7262463 0.4065478 0
vt 0.7261084 0.4553781 0
vt 0.726571 0.5042123 0
vt 0.7275732 0.553163 0
vt 0.7289643 0.6023455 0
vt 0.5889705 0.9316368 0
vt 0.6519303 0.9861913 0
vt 0.08622927 0.8567621 0
vt 0.1893191 0.8127872 0
vt 0.2931258 0.1174454 0
vt 0.3494277 0.7145852 0
vt 0.3993277 0.1557489 0
vt 0.6519294 0.7172156 0
vt 0.5889695 0.7717715 0
vt 0.7343886 0.7053597 0
vt 0.8552078 0.810049 0
vt 0.8101685 0.7399665 0
vt 0.8101684 0.9634401 0
vt 0.8552078 0.8933578 0
vt 0.5654999 0.8517034 0
vt 0.73439 0.9980469 0
#end 96 textures vertices 

#begin 90 normals 
vn -0 0 -1
vn -0 0 -1
vn -0 0 -1
vn -0 0 -1
vn -0 0 -1
vn -0 0 -1
vn -0 0 -1
vn -0 0 -1
vn -0 0 -1
vn -0 0 -1
vn -0 0 -1
vn -0 0 -1
vn -0.5195942 0.808505 -0.2762997
vn -0.8742217 0.3992429 -0.2762997
vn -0.9512893 -0.136774 -0.2762997
vn -0.7263294 -0.629368 -0.2762997
vn -0.2707646 -0.9221415 -0.2762997
vn 0.2707646 -0.9221415 -0.2762997
vn 0.7263294 -0.629368 -0.2762997
vn 0.9512893 -0.136774 -0.2762997
vn 0.8742217 0.3992429 -0.2762997
vn 0.5195942 0.808505 -0.2762997
vn -0.5404447 0.8409491 0.02690957
vn -0.5097204 0.7931412 -0.3333348
vn -0.5406376 0.8412492 -0.00328237
vn -0.9093029 0.4152639 0.02690957
vn -0.9894631 -0.1422626 0.02690957
vn -0.7554759 -0.6546236 0.02690957
vn -0.28163 -0.9591457 0.02690957
vn 0.28163 -0.9591457 0.02690957
vn 0.7554759 -0.6546236 0.02690957
vn 0.9894631 -0.1422626 0.02690957
vn 0.9093029 0.4152639 0.02690957
vn 0.5404447 0.8409491 0.02690957
vn 0.5406376 0.8412492 -0.00328237
vn 0.5097204 0.7931412 -0.3333348
vn 0 0.9610715 -0.2762997
vn 0 0.9572669 0.289206
vn -0.5175372 0.8053044 0.289206
vn -0.8707609 0.3976624 0.289206
vn -0.9475234 -0.1362326 0.289206
vn -0.7234541 -0.6268765 0.289206
vn -0.2696927 -0.918491 0.289206
vn 0.2696927 -0.918491 0.289206
vn 0.7234541 -0.6268765 0.289206
vn 0.9475234 -0.1362326 0.289206
vn 0.8707609 0.3976624 0.289206
vn 0.5175372 0.8053044 0.289206
vn -0.5381524 0.8373822 -0.09582778
vn 0 0.9953979 -0.09582778
vn -0 0.9996379 0.02690957
vn -0 0.9999946 -0.00328237
vn 0 0.9428085 -0.3333348
vn -0.9054461 0.4135026 -0.09582778
vn -0.9852663 -0.1416592 -0.09582778
vn -0.7522716 -0.651847 -0.09582778
vn -0.2804355 -0.9550775 -0.09582778
vn 0.2804355 -0.9550775 -0.09582778
vn 0.7522716 -0.651847 -0.09582778
vn 0.9852663 -0.1416592 -0.09582778
vn 0.9054461 0.4135026 -0.09582778
vn 0.5381524 0.8373822 -0.09582778
vn -0.8576091 0.3916562 -0.3333348
vn -0.9096274 0.4154121 -0.00328237
vn -0.9332122 -0.1341749 -0.3333348
vn -0.9898162 -0.1423133 -0.00328237
vn -0.7125272 -0.6174083 -0.3333348
vn -0.7557455 -0.6548572 -0.00328237
vn -0.2656193 -0.9046183 -0.3333348
vn -0.2817305 -0.959488 -0.00328237
vn 0.2656193 -0.9046183 -0.3333348
vn 0.2817305 -0.959488 -0.00328237
vn 0.7125272 -0.6174083 -0.3333348
vn 0.7557455 -0.6548572 -0.00328237
vn 0.9332122 -0.1341749 -0.3333348
vn 0.9898162 -0.1423133 -0.00328237
vn 0.8576091 0.3916562 -0.3333348
vn 0.9096274 0.4154121 -0.00328237
vn 0 -0 1
vn 0 -0 1
vn 0 -0 1
vn 0 -0 1
vn 0 -0 1
vn 0 -0 1
vn 0 -0 1
vn 0 -0 1
vn 0 -0 1
vn 0 -0 1
vn 0 -0 1
vn 0 -0 1
#end 90 normals 

#begin 77 faces
o object1
usemtl Default
g object1
s 1
f 1/1/1 2/2/2 12/12/12 
f 10/10/10 11/11/11 12/12/12 
f 9/9/9 10/10/10 12/12/12 
f 8/8/8 9/9/9 12/12/12 
f 7/7/7 8/8/8 12/12/12 
f 6/6/6 7/7/7 12/12/12 
f 5/5/5 6/6/6 12/12/12 
f 4/4/4 5/5/5 12/12/12 
f 3/3/3 4/4/4 12/12/12 
f 2/2/2 3/3/3 12/12/12 
f 11/11/11 1/1/1 12/12/12 
s 2
f 13/13/13 39/39/39 38/38/38 37/37/37 
f 22/22/22 36/36/36 51/51/53 37/84/37 
f 25/25/25 24/24/24 51/85/53 50/50/52 
f 35/35/35 34/34/34 49/49/51 50/86/52 
f 23/23/23 49/87/51 1/70/50 11/74/49 
f 26/26/26 23/23/23 11/74/49 10/72/54 
f 26/26/26 27/27/27 55/55/66 53/53/64 
f 55/55/66 57/57/68 56/56/67 54/54/65 
f 52/52/63 54/54/65 15/15/15 14/14/14 
f 15/15/15 16/16/16 42/42/42 41/41/41 
f 16/16/16 17/17/17 43/43/43 42/42/42 
f 58/58/69 60/60/71 18/18/18 17/17/17 
f 18/18/18 19/19/19 45/45/45 44/44/44 
f 62/62/73 64/64/75 20/20/20 19/19/19 
f 20/20/20 21/21/21 47/47/47 46/46/46 
f 64/64/75 66/66/77 21/21/21 20/20/20 
f 65/65/76 67/67/78 66/66/77 64/64/75 
f 32/32/32 33/33/33 67/67/78 65/65/76 
f 33/33/33 32/32/32 4/79/60 3/80/61 
f 32/32/32 31/31/31 5/78/59 4/79/60 
f 30/30/30 31/31/31 63/63/74 61/61/72 
f 29/29/29 30/30/30 61/61/72 59/59/70 
f 29/29/29 28/28/28 8/75/56 7/76/57 
f 30/30/30 29/29/29 7/76/57 6/77/58 
f 31/31/31 30/30/30 6/77/58 5/78/59 
f 31/31/31 32/32/32 65/65/76 63/63/74 
f 63/63/74 65/65/76 64/64/75 62/62/73 
f 19/19/19 20/20/20 46/46/46 45/45/45 
f 60/60/71 62/62/73 19/19/19 18/18/18 
f 61/61/72 63/63/74 62/62/73 60/60/71 
f 59/59/70 61/61/72 60/60/71 58/58/69 
f 17/17/17 18/18/18 44/44/44 43/43/43 
f 14/14/14 15/15/15 41/41/41 40/40/40 
f 56/56/67 58/58/69 17/17/17 16/16/16 
f 54/54/65 56/56/67 16/16/16 15/15/15 
f 28/28/28 29/29/29 59/59/70 57/57/68 
f 57/57/68 59/59/70 58/58/69 56/56/67 
f 53/53/64 55/55/66 54/54/65 52/52/63 
f 27/27/27 28/28/28 57/57/68 55/55/66 
f 28/28/28 27/27/27 9/69/55 8/75/56 
f 27/27/27 26/26/26 10/72/54 9/69/55 
f 34/34/34 2/73/62 1/71/50 49/49/51 
f 34/34/34 33/33/33 3/80/61 2/73/62 
f 33/33/33 34/34/34 35/35/35 67/67/78 
f 23/23/23 26/26/26 53/53/64 25/25/25 
f 25/25/25 53/53/64 52/52/63 24/24/24 
f 23/23/23 25/25/25 50/50/52 49/87/51 
f 36/36/36 35/35/35 50/86/52 51/51/53 
f 67/67/78 35/35/35 36/36/36 66/66/77 
f 66/66/77 36/36/36 22/22/22 21/21/21 
f 21/21/21 22/22/22 48/48/48 47/47/47 
f 22/22/22 37/84/37 38/83/38 48/48/48 
f 24/24/24 52/52/63 14/14/14 13/13/13 
f 24/24/24 13/13/13 37/37/37 51/85/53 
f 13/13/13 14/14/14 40/40/40 39/39/39 
s 3
f 38/82/79 39/81/80 68/68/90 
f 47/93/88 48/96/89 68/68/90 
f 46/94/87 47/93/88 68/68/90 
f 45/91/86 46/94/87 68/68/90 
f 44/92/85 45/91/86 68/68/90 
f 43/90/84 44/92/85 68/68/90 
f 42/88/83 43/90/84 68/68/90 
f 41/89/82 42/88/83 68/68/90 
f 40/95/81 41/89/82 68/68/90 
f 39/81/80 40/95/81 68/68/90 
f 48/96/89 38/82/79 68/68/90 
#end 77 faces

#ZOMPROPERTIES_03 {
#ZOMPROPERTIES_03 table {Mesh table {SymPlane table {Point vector3d 0 0 0 Normal vector3d 1 0 0 Threshold double 0.01 
#ZOMPROPERTIES_03 Enabled bool false EdgeID int -1 SymEdgeID int -1 UPos double 0.5 LocalMode bool false } RootGroup C
#ZOMPROPERTIES_03 SubMeshGroup {Children table {Tile_0_0 CSubMeshGroup {Children table {} BBoxUV box3d 0 0 0 0 0 0 BBo
#ZOMPROPERTIES_03 x3D box3d 0 0 0 0 0 0 AreaUV double 0.534157 Area3D double 0 IsRoot bool false TopoStable table {Sel
#ZOMPROPERTIES_03 ected bool false Box box3d 0 1 0 1 0 1 U int 0 V int 0 NU int 0 NV int 0 Tiling vector3d 1 1 1 TileR
#ZOMPROPERTIES_03 atioMode string "1:1" } IsTile bool true PolyIDs ints { 0 9 8 7 6 5 4 3 2 1 10 11 65 43 20 21 42 23 
#ZOMPROPERTIES_03 38 25 61 62 12 58 14 52 53 29 30 35 34 33 50 51 16 15 57 13 64 63 56 48 19 18 45 47 44 41 22 40 39 3
#ZOMPROPERTIES_03 7 24 27 26 59 28 36 31 32 46 49 17 55 54 60 66 75 74 73 72 71 70 69 68 67 76 } } } BBoxUV box3d 0 0 
#ZOMPROPERTIES_03 0 0 0 0 BBox3D box3d 0 0 0 0 0 0 AreaUV double 0 Area3D double 0 IsRoot bool true TopoStable table {
#ZOMPROPERTIES_03 Selected bool false Box box3d 0 1 0 1 0 1 U int 0 V int 0 NU int 1 NV int 1 Tiling vector3d 1 1 1 Ti
#ZOMPROPERTIES_03 leRatioMode string "1:1" Pack table {Rotate table {Mode int 2 Min double 0 Max double 180 Step doubl
#ZOMPROPERTIES_03 e 0 } SpacingSize double 0.00390625 MarginSize double 0.00195312 Resolution int 200 Scaling table {M
#ZOMPROPERTIES_03 ode int 0 } LayoutScalingMode int 2 MaxMutations int 1 } } IsTile bool false PolyIDs ints { } } Maps
#ZOMPROPERTIES_03  table {Density table {PrimType string "Polygon" Size int 1 DefaultValue double 1 ScaleType string "
#ZOMPROPERTIES_03 Log" MergeMode string "Average" MinValue double 0.1 MaxValue double 4 Data doubles { r 77 1 } } Pin 
#ZOMPROPERTIES_03 table {PrimType string "Vertex" Size int 1 DefaultValue double 0 ScaleType string "Normalized" Merge
#ZOMPROPERTIES_03 Mode string "Max" MinValue double 0 MaxValue double 1 Data doubles { r 96 0 } } Protect table {PrimT
#ZOMPROPERTIES_03 ype string "Vertex" Size int 1 DefaultValue double 0 ScaleType string "Normalized" MergeMode string 
#ZOMPROPERTIES_03 "Average" MinValue double -1 MaxValue double 1 Data doubles { r 96 0 } } } } }
#ZOMPROPERTIES_03 }

#begin 0 fatal error vertex (that RizomUV cannot handle)
#end 0 fatal error vertex (that RizomUV cannot handle)

#begin 0 error vertex
#end 0 error vertex
