mtllib greeble2.mtl
o object1
g object1
v 24.99463053 -9.47869609 -17.34134073
v 35.00665827 -9.47869609 -17.34134073
v 45.01868601 -9.47869609 -0.00000000
v 35.00665827 -9.47869609 17.34134073
v 24.99463053 -9.47869609 17.34134073
v 24.99463053 -9.47869609 21.64598499
v 37.49194579 -9.47869609 21.64598499
v 49.98926105 -9.47869609 0.00000000
v 37.49194579 -9.47869609 -21.64598499
v 24.99463053 -9.47869609 -21.64598499
v 14.98260279 -9.47869609 17.34134073
v 4.97057505 -9.47869609 0.00000000
v 14.98260279 -9.47869609 -17.34134073
v 12.49731526 -9.47869609 -21.64598499
v -0.00000000 -9.47869609 0.00000000
v 12.49731526 -9.47869609 21.64598499
v 37.49194579 48.76614674 -21.64598499
v 12.49731526 48.76614674 -21.64598499
v 0.00000000 29.27599943 -0.00000000
v 7.00644590 22.26955353 -12.13552028
v 7.00644590 4.85025312 -12.13552028
v 0.00000000 -2.15619278 -0.00000000
v -0.00000000 48.76614674 0.00000000
v 1.70320431 30.97920374 2.95003639
v 12.49731526 48.76614674 21.64598499
v 1.70320431 -3.85939708 2.95003639
v 10.41285451 4.85025312 18.03559307
v 10.41285451 22.26955353 18.03559307
v 37.49194579 23.27267718 21.64598499
v 35.49148676 22.26955353 21.64598499
v 35.49148676 4.85025312 21.64598499
v 37.49194579 3.84712947 21.64598499
v 37.49194579 48.76614674 21.64598499
v 49.98926105 3.77449156 -0.00000000
v 48.91035036 22.26955353 -1.86872814
v 49.98926105 23.34531509 -0.00000000
v 49.98926105 48.76614674 0.00000000
v 48.91035036 4.85025312 -1.86872814
v 35.00665827 53.07079101 17.34134073
v 14.98260279 53.07079101 17.34134073
v 14.98260279 53.07079101 -17.34134073
v 35.00665827 53.07079101 -17.34134073
v 45.01868601 53.07079101 0.00000000
v 4.97057505 53.07079101 0.00000000
v 19.55583761 22.67038030 17.34134073
v 19.55583761 4.44942635 17.34134073
v 14.98260279 4.44942635 17.34134073
v 14.98260279 22.67038030 17.34134073
v 11.97702095 22.26955353 -12.13552028
v 4.97057505 29.27599943 0.00000000
v 4.97057505 -2.15619278 0.00000000
v 11.97702095 4.85025312 -12.13552028
v 6.67377935 -3.85939708 2.95003639
v 6.67377935 30.97920374 2.95003639
v 19.55583761 22.26955353 18.03559307
v 19.55583761 4.85025312 18.03559307
v 32.32839026 22.26955353 27.18887663
v 32.32839026 4.85025312 27.18887663
v 45.43066726 -3.85939708 34.66579829
v 65.54950809 -3.85939708 -0.58970359
v 52.44723109 4.85025312 -8.06662525
v 52.44723109 22.26955353 -8.06662525
v 78.65178510 4.85025312 6.88721807
v 78.65178510 22.26955353 6.88721807
v 65.54950809 30.97920374 -0.58970359
v 65.54950809 13.55990333 -0.58970359
v 58.53294426 22.26955353 42.14271995
v 45.43066726 30.97920374 34.66579829
v 43.94376389 27.51510212 37.27139196
v 54.44044722 20.53750272 43.26141026
v 58.53294426 4.85025312 42.14271995
v 54.44044722 6.58230393 43.26141026
v 43.94376389 -0.39529547 37.27139196
v 49.64976542 -0.39529547 27.27240896
v 60.14644875 6.58230393 33.26242725
v 60.14644875 20.53750272 33.26242725
v 49.64976542 27.51510212 27.27240896
v 39.15308209 20.53750272 21.28239067
v 39.15308209 6.58230393 21.28239067
v 49.64976542 13.55990333 27.27240896
v 33.44708056 6.58230393 31.28137367
v 33.44708056 20.53750272 31.28137367
vt 0.90056714 0.50000000
vt 0.90056714 0.29971643
vt 0.50000000 0.09943286
vt 0.09943286 0.29971643
vt 0.09943286 0.50000000
vt 0.00000000 0.50000000
vt 0.00000000 0.25000000
vt 0.50000000 0.00000000
vt 1.00000000 0.25000000
vt 1.00000000 0.50000000
vt 0.09943286 0.70028357
vt 0.50000000 0.90056714
vt 0.90056714 0.70028357
vt 1.00000000 0.75000000
vt 0.50000000 1.00000000
vt 0.00000000 0.75000000
vt 1.00000000 0.00000000
vt 1.00000000 1.00000000
vt 0.00000000 1.00000000
vt 0.00000000 0.00000000
vt 0.00000000 0.50000000
vt 0.66537557 1.00000000
vt 0.54508259 0.43936392
vt 0.24601233 0.43936392
vt 0.12571934 1.00000000
vt 0.00000000 1.00000000
vt 0.00000000 0.00000000
vt 1.00000000 0.00000000
vt 1.00000000 1.00000000
vt 0.69461772 0.13628562
vt 0.66537557 0.00000000
vt 1.00000000 0.00000000
vt 1.00000000 1.00000000
vt 0.00000000 1.00000000
vt 0.00000000 0.00000000
vt 0.12571934 0.00000000
vt 0.09647719 0.13628562
vt 0.24601233 0.83320732
vt 0.54508259 0.83320732
vt 0.56230512 1.00000000
vt 0.54508259 0.91996445
vt 0.24601233 0.91996445
vt 0.22878979 1.00000000
vt 0.00000000 1.00000000
vt 0.00000000 0.00000000
vt 1.00000000 0.00000000
vt 1.00000000 1.00000000
vt 0.00000000 0.50000000
vt 1.00000000 0.00000000
vt 0.99454909 1.00000000
vt 0.00000000 1.00000000
vt 0.00000000 0.00000000
vt 0.54508259 0.08633140
vt 0.56355223 0.00000000
vt 1.00000000 0.00000000
vt 1.00000000 1.00000000
vt 0.00000000 1.00000000
vt 0.00000000 0.00000000
vt 0.22754268 0.00000000
vt 0.24601233 0.08633140
vt 0.00000000 0.00000000
vt 1.00000000 0.00000000
vt 0.90056714 1.00000000
vt 0.09943286 1.00000000
vt 0.00000000 0.00000000
vt 1.00000000 0.00000000
vt 0.90056714 1.00000000
vt 0.09943286 1.00000000
vt 0.00000000 0.00000000
vt 1.00000000 0.00000000
vt 0.90056714 1.00000000
vt 0.09943286 1.00000000
vt 0.00000000 0.00000000
vt 1.00000000 0.00000000
vt 0.90056714 1.00000000
vt 0.09943286 1.00000000
vt 0.00000000 0.00000000
vt 1.00000000 0.00000000
vt 0.90056714 1.00000000
vt 0.09943286 1.00000000
vt 0.00000000 0.00000000
vt 1.00000000 0.00000000
vt 0.90056714 1.00000000
vt 0.09943286 1.00000000
vt 0.48602174 0.22838704
vt 0.77732635 0.22838704
vt 0.77732635 0.00000000
vt 1.00000000 0.00000000
vt 1.00000000 1.00000000
vt 0.00000000 1.00000000
vt 0.00000000 0.00000000
vt 0.48602174 0.00000000
vt 1.00000000 0.50000000
vt 0.00000000 1.00000000
vt 0.00000000 0.00000000
vt 1.00000000 0.00000000
vt 1.00000000 1.00000000
vt 0.00000000 1.00000000
vt 0.00000000 0.00000000
vt 1.00000000 0.00000000
vt 1.00000000 1.00000000
vt 0.00000000 1.00000000
vt 0.00000000 0.00000000
vt 1.00000000 0.00000000
vt 1.00000000 1.00000000
vt 1.00000000 0.50000000
vt 0.49242990 0.30019711
vt 0.38041545 1.00000000
vt 0.00000000 1.00000000
vt 0.00000000 0.00000000
vt 1.00000000 0.00000000
vt 1.00000000 1.00000000
vt 0.88293264 1.00000000
vt 0.77091820 0.30019711
vt 0.00000000 1.00000000
vt 0.59655014 0.17011582
vt 0.47426487 0.00000000
vt 1.00000000 0.00000000
vt 1.00000000 1.00000000
vt 0.78271283 0.00000000
vt 0.72668713 0.17011582
vt 1.00000000 1.00000000
vt 0.00000000 1.00000000
vt 0.00000000 0.00000000
vt 1.00000000 0.80444630
vt 0.85779399 1.00000000
vt 0.44278470 1.00000000
vt 0.58499070 0.80444630
vt 0.00000000 0.00000000
vt 0.41500930 0.00000000
vt 1.00000000 0.00000000
vt 1.00000000 1.00000000
vt 0.00000000 1.00000000
vt 0.00000000 0.00000000
vt 0.85779399 0.00000000
vt 1.00000000 0.19555370
vt 0.41500930 1.00000000
vt 0.00000000 1.00000000
vt 0.58499070 0.19555370
vt 0.44278470 0.00000000
vt 0.51213639 0.00000000
vt 1.00000000 1.00000000
vt 0.72157749 1.00000000
vt 0.25616584 0.04602100
vt 0.00000000 0.04602100
vt 0.00000000 0.00000000
vt 1.00000000 0.00000000
vt 1.00000000 1.00000000
vt 0.00000000 1.00000000
vt 0.00000000 0.00000000
vt 1.00000000 0.00000000
vt 1.00000000 1.00000000
vt 0.00000000 0.97800188
vt 0.00000000 0.02199812
vt 1.00000000 0.00000000
vt 0.51213639 1.00000000
vt 0.00000000 1.00000000
vt 0.00000000 0.95397900
vt 0.25616584 0.95397900
vt 0.72157749 0.00000000
vt 0.00284928 1.00000000
vt 0.00000000 0.00000000
vt 1.00000000 0.00000000
vt 1.00000000 1.00000000
vt 0.00000000 1.00000000
vt 0.00000000 0.00000000
vt 1.00000000 0.00000000
vt 1.00000000 1.00000000
vt 0.20261015 0.12351375
vt 0.81835354 0.11517382
vt 0.84277939 0.00000000
vt 1.00000000 0.00000000
vt 1.00000000 1.00000000
vt 0.00000000 1.00000000
vt 0.00000000 0.00000000
vt 0.17579943 0.00000000
vt 1.00000000 0.00000000
vt 1.00000000 1.00000000
vt 0.00000000 1.00000000
vt 0.00000000 0.00000000
vt 1.00000000 0.25000000
vt 1.00000000 0.75000000
vt 0.50000000 1.00000000
vt 0.00000000 0.75000000
vt 0.00000000 0.25000000
vt 0.50000000 0.00000000
vt 0.50000000 0.50000000
vt 1.00000000 0.00000000
vt 1.00000000 1.00000000
vt 0.00000000 1.00000000
vt 0.00000000 0.00000000
vt 0.00000000 0.00000000
vt 1.00000000 0.00000000
vt 0.90056714 1.00000000
vt 0.09943286 1.00000000
vt 0.00000000 0.00000000
vt 1.00000000 0.00000000
vt 0.90056714 1.00000000
vt 0.09943286 1.00000000
vt 0.00000000 0.00000000
vt 1.00000000 0.00000000
vt 0.90056714 1.00000000
vt 0.09943286 1.00000000
vt 0.00000000 1.00000000
vt 0.00000000 0.00000000
vt 1.00000000 0.00000000
vt 1.00000000 1.00000000
vt 0.50000000 1.00000000
vt 0.00000000 0.75000000
vt 0.00000000 0.25000000
vt 0.50000000 0.00000000
vt 1.00000000 0.25000000
vt 1.00000000 0.75000000
vt 0.50000000 0.50000000
vt 0.00000000 1.00000000
vt 0.00000000 0.00000000
vt 1.00000000 0.00000000
vt 1.00000000 1.00000000
vt 0.00000000 1.00000000
vt 0.00000000 0.00000000
vt 1.00000000 0.00000000
vt 1.00000000 1.00000000
vt 0.00000000 1.00000000
vt 0.00000000 0.00000000
vt 1.00000000 0.00000000
vt 1.00000000 1.00000000
vt 0.00000000 1.00000000
vt 0.00000000 0.00000000
vt 1.00000000 0.00000000
vt 1.00000000 1.00000000
vt 0.00000000 1.00000000
vt 0.00000000 0.00000000
vt 1.00000000 0.00000000
vt 1.00000000 1.00000000
vt 0.00000000 0.00000000
vt 1.00000000 0.00000000
vt 0.90056714 1.00000000
vt 0.09943286 1.00000000
vt 1.00000000 0.00000000
vt 1.00000000 1.00000000
vt 0.00000000 1.00000000
vt 0.00000000 0.00000000
vt 1.00000000 0.00000000
vt 1.00000000 1.00000000
vt 0.00000000 1.00000000
vt 0.00000000 0.00000000
vt 0.00000000 0.00000000
vt 1.00000000 0.00000000
vt 0.90056714 1.00000000
vt 0.09943286 1.00000000
vt 0.00000000 0.00000000
vt 1.00000000 0.00000000
vt 0.90056714 1.00000000
vt 0.09943286 1.00000000
vt 0.20261015 0.87648625
vt 0.17579943 1.00000000
vt 0.00000000 1.00000000
vt 0.00000000 0.00000000
vt 1.00000000 0.00000000
vt 1.00000000 1.00000000
vt 0.84277939 1.00000000
vt 0.81835354 0.88482618
vn -0.00000000 -1.00000000 -0.00000000
vn -0.00000000 -1.00000000 -0.00000000
vn -0.00000000 -1.00000000 -0.00000000
vn -0.00000000 -1.00000000 -0.00000000
vn -0.00000000 -1.00000000 -0.00000000
vn -0.00000000 -1.00000000 -0.00000000
vn -0.00000000 -1.00000000 -0.00000000
vn -0.00000000 -1.00000000 -0.00000000
vn -0.00000000 -1.00000000 -0.00000000
vn -0.00000000 -1.00000000 -0.00000000
vn -0.00000000 -1.00000000 -0.00000000
vn -0.00000000 -1.00000000 -0.00000000
vn -0.00000000 -1.00000000 -0.00000000
vn -0.00000000 -1.00000000 -0.00000000
vn -0.00000000 -1.00000000 -0.00000000
vn -0.00000000 -1.00000000 -0.00000000
vn -0.00000000 -0.00000000 -1.00000000
vn -0.00000000 -0.00000000 -1.00000000
vn -0.00000000 -0.00000000 -1.00000000
vn -0.00000000 -0.00000000 -1.00000000
vn -0.00000000 -0.00000000 -1.00000000
vn -0.86602540 -0.00000000 -0.50000000
vn -0.86602540 -0.00000000 -0.50000000
vn -0.86602540 -0.00000000 -0.50000000
vn -0.86602540 -0.00000000 -0.50000000
vn -0.86602540 -0.00000000 -0.50000000
vn -0.86602540 -0.00000000 -0.50000000
vn -0.86602540 -0.00000000 -0.50000000
vn -0.86602540 -0.00000000 -0.50000000
vn -0.86602540 0.00000000 0.50000000
vn -0.86602540 0.00000000 0.50000000
vn -0.86602540 0.00000000 0.50000000
vn -0.86602540 0.00000000 0.50000000
vn -0.86602540 0.00000000 0.50000000
vn -0.86602540 0.00000000 0.50000000
vn -0.86602540 0.00000000 0.50000000
vn -0.86602540 0.00000000 0.50000000
vn -0.86602540 0.00000000 0.50000000
vn -0.86602540 0.00000000 0.50000000
vn -0.00000000 0.00000000 1.00000000
vn -0.00000000 0.00000000 1.00000000
vn -0.00000000 0.00000000 1.00000000
vn -0.00000000 0.00000000 1.00000000
vn -0.00000000 0.00000000 1.00000000
vn -0.00000000 0.00000000 1.00000000
vn -0.00000000 0.00000000 1.00000000
vn -0.00000000 0.00000000 1.00000000
vn -0.00000000 0.00000000 1.00000000
vn 0.86602540 -0.00000000 0.50000000
vn 0.86602540 -0.00000000 0.50000000
vn 0.86602540 -0.00000000 0.50000000
vn 0.86602540 -0.00000000 0.50000000
vn 0.86602540 -0.00000000 -0.50000000
vn 0.86602540 -0.00000000 -0.50000000
vn 0.86602540 -0.00000000 -0.50000000
vn 0.86602540 -0.00000000 -0.50000000
vn 0.86602540 -0.00000000 -0.50000000
vn 0.86602540 -0.00000000 -0.50000000
vn 0.86602540 -0.00000000 -0.50000000
vn 0.86602540 -0.00000000 -0.50000000
vn -0.00000000 0.70710678 0.70710678
vn -0.00000000 0.70710678 0.70710678
vn -0.00000000 0.70710678 0.70710678
vn -0.00000000 0.70710678 0.70710678
vn -0.00000000 0.70710678 -0.70710678
vn -0.00000000 0.70710678 -0.70710678
vn -0.00000000 0.70710678 -0.70710678
vn -0.00000000 0.70710678 -0.70710678
vn 0.61237244 0.70710678 0.35355339
vn 0.61237244 0.70710678 0.35355339
vn 0.61237244 0.70710678 0.35355339
vn 0.61237244 0.70710678 0.35355339
vn 0.61237244 0.70710678 -0.35355339
vn 0.61237244 0.70710678 -0.35355339
vn 0.61237244 0.70710678 -0.35355339
vn 0.61237244 0.70710678 -0.35355339
vn -0.61237244 0.70710678 -0.35355339
vn -0.61237244 0.70710678 -0.35355339
vn -0.61237244 0.70710678 -0.35355339
vn -0.61237244 0.70710678 -0.35355339
vn -0.61237244 0.70710678 0.35355339
vn -0.61237244 0.70710678 0.35355339
vn -0.61237244 0.70710678 0.35355339
vn -0.61237244 0.70710678 0.35355339
vn 0.00000000 0.00000000 -1.00000000
vn 0.00000000 0.00000000 -1.00000000
vn 0.00000000 0.00000000 -1.00000000
vn 0.00000000 0.00000000 -1.00000000
vn 0.00000000 0.00000000 -1.00000000
vn 0.00000000 0.00000000 -1.00000000
vn 0.00000000 0.00000000 -1.00000000
vn 0.00000000 0.00000000 -1.00000000
vn 0.00000000 0.00000000 -1.00000000
vn -0.86602540 -0.00000000 -0.50000000
vn -0.86602540 -0.00000000 -0.50000000
vn -0.86602540 -0.00000000 -0.50000000
vn -0.86602540 -0.00000000 -0.50000000
vn -0.86602540 -0.00000000 0.50000000
vn -0.86602540 -0.00000000 0.50000000
vn -0.86602540 -0.00000000 0.50000000
vn -0.86602540 -0.00000000 0.50000000
vn -0.00000000 -0.00000000 1.00000000
vn -0.00000000 -0.00000000 1.00000000
vn -0.00000000 -0.00000000 1.00000000
vn -0.00000000 -0.00000000 1.00000000
vn -0.00000000 -0.00000000 1.00000000
vn 0.86602540 -0.00000000 0.50000000
vn 0.86602540 -0.00000000 0.50000000
vn 0.86602540 -0.00000000 0.50000000
vn 0.86602540 -0.00000000 0.50000000
vn 0.86602540 -0.00000000 0.50000000
vn 0.86602540 -0.00000000 0.50000000
vn 0.86602540 -0.00000000 0.50000000
vn 0.86602540 -0.00000000 0.50000000
vn 0.86602540 0.00000000 -0.50000000
vn 0.86602540 0.00000000 -0.50000000
vn 0.86602540 0.00000000 -0.50000000
vn 0.86602540 0.00000000 -0.50000000
vn 0.86602540 0.00000000 -0.50000000
vn 0.86602540 0.00000000 -0.50000000
vn 0.86602540 0.00000000 -0.50000000
vn 0.86602540 0.00000000 -0.50000000
vn 0.86602540 0.00000000 -0.50000000
vn 0.86602540 0.00000000 -0.50000000
vn 0.00000000 0.86602540 0.50000000
vn 0.00000000 0.86602540 0.50000000
vn 0.00000000 0.86602540 0.50000000
vn 0.00000000 0.86602540 0.50000000
vn 0.00000000 0.86602540 0.50000000
vn 0.00000000 0.86602540 0.50000000
vn -0.00000000 -0.00000000 1.00000000
vn -0.00000000 -0.00000000 1.00000000
vn -0.00000000 -0.00000000 1.00000000
vn -0.00000000 -0.00000000 1.00000000
vn -0.00000000 -0.86602540 0.50000000
vn -0.00000000 -0.86602540 0.50000000
vn -0.00000000 -0.86602540 0.50000000
vn -0.00000000 -0.86602540 0.50000000
vn -0.00000000 -0.86602540 0.50000000
vn -0.00000000 -0.86602540 0.50000000
vn 0.00000000 -0.86602540 -0.50000000
vn 0.00000000 -0.86602540 -0.50000000
vn 0.00000000 -0.86602540 -0.50000000
vn 0.00000000 -0.86602540 -0.50000000
vn 0.00000000 -0.86602540 -0.50000000
vn 0.00000000 -0.86602540 -0.50000000
vn 0.00000000 0.00000000 -1.00000000
vn 0.00000000 0.00000000 -1.00000000
vn 0.00000000 0.00000000 -1.00000000
vn 0.00000000 0.00000000 -1.00000000
vn -1.00000000 0.00000000 -0.00000000
vn -1.00000000 0.00000000 -0.00000000
vn -1.00000000 0.00000000 -0.00000000
vn -1.00000000 0.00000000 -0.00000000
vn 0.00000000 0.86602540 -0.50000000
vn 0.00000000 0.86602540 -0.50000000
vn 0.00000000 0.86602540 -0.50000000
vn 0.00000000 0.86602540 -0.50000000
vn 0.00000000 0.86602540 -0.50000000
vn 0.00000000 0.86602540 -0.50000000
vn 0.86602540 -0.00000000 0.50000000
vn 0.86602540 -0.00000000 0.50000000
vn 0.86602540 -0.00000000 0.50000000
vn 0.86602540 -0.00000000 0.50000000
vn -0.86853122 -0.00000000 -0.49563445
vn -0.86853122 -0.00000000 -0.49563445
vn -0.86853122 -0.00000000 -0.49563445
vn -0.86853122 -0.00000000 -0.49563445
vn -0.43426561 -0.86602540 -0.24781723
vn -0.43426561 -0.86602540 -0.24781723
vn -0.43426561 -0.86602540 -0.24781723
vn -0.43426561 -0.86602540 -0.24781723
vn -0.43426561 -0.86602540 -0.24781723
vn -0.43426561 -0.86602540 -0.24781723
vn -0.43426561 -0.86602540 -0.24781723
vn -0.43426561 -0.86602540 -0.24781723
vn -0.86853122 -0.00000000 -0.49563445
vn -0.86853122 -0.00000000 -0.49563445
vn -0.86853122 -0.00000000 -0.49563445
vn -0.86853122 -0.00000000 -0.49563445
vn 0.49563445 0.00000000 -0.86853122
vn 0.49563445 0.00000000 -0.86853122
vn 0.49563445 0.00000000 -0.86853122
vn 0.49563445 0.00000000 -0.86853122
vn 0.49563445 0.00000000 -0.86853122
vn 0.49563445 0.00000000 -0.86853122
vn 0.49563445 0.00000000 -0.86853122
vn 0.43426561 0.86602540 0.24781723
vn 0.43426561 0.86602540 0.24781723
vn 0.43426561 0.86602540 0.24781723
vn 0.43426561 0.86602540 0.24781723
vn -0.04339432 0.61237244 0.78937756
vn -0.04339432 0.61237244 0.78937756
vn -0.04339432 0.61237244 0.78937756
vn -0.04339432 0.61237244 0.78937756
vn 0.26367783 -0.00000000 0.96461080
vn 0.26367783 -0.00000000 0.96461080
vn 0.26367783 -0.00000000 0.96461080
vn 0.26367783 -0.00000000 0.96461080
vn -0.04339432 -0.61237244 0.78937756
vn -0.04339432 -0.61237244 0.78937756
vn -0.04339432 -0.61237244 0.78937756
vn -0.04339432 -0.61237244 0.78937756
vn -0.43426561 0.86602540 -0.24781723
vn -0.43426561 0.86602540 -0.24781723
vn -0.43426561 0.86602540 -0.24781723
vn -0.43426561 0.86602540 -0.24781723
vn -0.49563445 -0.00000000 0.86853122
vn -0.49563445 -0.00000000 0.86853122
vn -0.49563445 -0.00000000 0.86853122
vn -0.49563445 -0.00000000 0.86853122
vn -0.49563445 -0.00000000 0.86853122
vn -0.49563445 -0.00000000 0.86853122
vn -0.49563445 -0.00000000 0.86853122
vn 0.86853122 -0.00000000 0.49563445
vn 0.86853122 -0.00000000 0.49563445
vn 0.86853122 -0.00000000 0.49563445
vn 0.86853122 -0.00000000 0.49563445
vn 0.43426561 -0.86602540 0.24781723
vn 0.43426561 -0.86602540 0.24781723
vn 0.43426561 -0.86602540 0.24781723
vn 0.43426561 -0.86602540 0.24781723
vn 0.43426561 0.86602540 0.24781723
vn 0.43426561 0.86602540 0.24781723
vn 0.43426561 0.86602540 0.24781723
vn 0.43426561 0.86602540 0.24781723
vn -0.86853122 -0.00000000 -0.49563445
vn -0.86853122 -0.00000000 -0.49563445
vn -0.86853122 -0.00000000 -0.49563445
vn -0.86853122 -0.00000000 -0.49563445
vn -0.43426561 -0.86602540 -0.24781723
vn -0.43426561 -0.86602540 -0.24781723
vn -0.43426561 -0.86602540 -0.24781723
vn -0.43426561 -0.86602540 -0.24781723
vn -0.65753864 0.61237244 0.43891108
vn -0.65753864 0.61237244 0.43891108
vn -0.65753864 0.61237244 0.43891108
vn -0.65753864 0.61237244 0.43891108
vn 0.86853122 -0.00000000 0.49563445
vn 0.86853122 -0.00000000 0.49563445
vn 0.86853122 -0.00000000 0.49563445
vn 0.86853122 -0.00000000 0.49563445
vn 0.43426561 -0.86602540 0.24781723
vn 0.43426561 -0.86602540 0.24781723
vn 0.43426561 -0.86602540 0.24781723
vn 0.43426561 -0.86602540 0.24781723
vn -0.65753864 -0.61237244 0.43891108
vn -0.65753864 -0.61237244 0.43891108
vn -0.65753864 -0.61237244 0.43891108
vn -0.65753864 -0.61237244 0.43891108
vn -0.96461080 0.00000000 0.26367783
vn -0.96461080 0.00000000 0.26367783
vn -0.96461080 -0.00000000 0.26367783
vn -0.96461080 -0.00000000 0.26367783
vn -0.43426561 0.86602540 -0.24781723
vn -0.43426561 0.86602540 -0.24781723
vn -0.43426561 0.86602540 -0.24781723
vn -0.43426561 0.86602540 -0.24781723
vn -0.43426561 0.86602540 -0.24781723
vn -0.43426561 0.86602540 -0.24781723
vn -0.43426561 0.86602540 -0.24781723
vn -0.43426561 0.86602540 -0.24781723
s 1
usemtl Default
f 6/6/6 5/5/5 4/4/4
f 7/7/7 4/4/4 3/3/3
f 3/3/3 9/9/9 8/8/8
f 2/2/2 10/10/10 9/9/9
f 14/14/14 10/10/10 13/13/13
f 15/15/15 14/14/14 12/12/12
f 12/12/12 11/11/11 16/16/16
f 16/16/16 15/15/15 12/12/12
f 14/14/14 13/13/13 12/12/12
f 10/10/10 1/1/1 13/13/13
f 2/2/2 1/1/1 10/10/10
f 3/3/3 2/2/2 9/9/9
f 8/8/8 7/7/7 3/3/3
f 11/11/11 6/6/6 16/16/16
f 11/11/11 5/5/5 6/6/6
f 7/7/7 6/6/6 4/4/4
s 2
f 17/17/17 9/20/20 10/21/21
f 10/21/21 14/19/19 18/18/18
f 10/21/21 18/18/18 17/17/17
s 3
f 15/26/26 22/25/25 21/24/24
f 14/27/27 21/24/24 20/23/23
f 20/23/23 23/29/29 18/28/28
f 20/23/23 19/22/22 23/29/29
f 18/28/28 14/27/27 20/23/23
f 14/27/27 15/26/26 21/24/24
s 4
f 26/37/37 22/36/36 15/35/35
f 27/38/38 26/37/37 16/34/34
f 28/39/39 16/34/34 25/33/33
f 25/33/33 23/32/32 24/30/30
f 23/32/32 19/31/31 24/30/30
f 25/33/33 24/30/30 28/39/39
f 28/39/39 27/38/38 16/34/34
f 26/37/37 15/35/35 16/34/34
s 5
f 6/48/48 7/44/44 32/43/43
f 16/45/45 32/43/43 31/42/42
f 25/46/46 16/45/45 30/41/41
f 25/46/46 30/41/41 29/40/40
f 29/40/40 33/47/47 25/46/46
f 16/45/45 31/42/42 30/41/41
f 16/45/45 6/48/48 32/43/43
s 6
f 7/52/52 8/51/51 34/50/50 32/49/49
s 7
f 34/59/59 8/58/58 9/57/57
f 35/53/53 9/57/57 17/56/56
f 17/56/56 37/55/55 36/54/54
f 17/56/56 36/54/54 35/53/53
f 35/53/53 38/60/60 9/57/57
f 38/60/60 34/59/59 9/57/57
s 8
f 25/61/61 33/62/62 39/63/63 40/64/64
s 9
f 17/65/65 18/66/66 41/67/67 42/68/68
s 10
f 33/69/69 37/70/70 43/71/71 39/72/72
s 11
f 37/73/73 17/74/74 42/75/75 43/76/76
s 12
f 18/77/77 23/78/78 44/79/79 41/80/80
s 13
f 23/81/81 25/82/82 40/83/83 44/84/84
s 14
f 11/88/88 47/87/87 46/86/86
f 4/89/89 46/86/86 45/85/85
f 48/92/92 39/90/90 45/85/85
f 48/92/92 40/91/91 39/90/90
f 39/90/90 4/89/89 45/85/85
f 4/89/89 5/93/93 46/86/86
f 5/93/93 11/88/88 46/86/86
s 15
f 3/97/97 4/96/96 39/95/95 43/94/94
s 16
f 2/101/101 3/100/100 43/99/99 42/98/98
s 17
f 42/103/103 41/102/102 13/105/105
f 13/105/105 1/106/106 42/103/103
f 1/106/106 2/104/104 42/103/103
s 18
f 52/114/114 51/113/113 12/112/112
f 49/107/107 52/114/114 13/111/111
f 13/111/111 41/110/110 49/107/107
f 41/110/110 44/109/109 49/107/107
f 44/109/109 50/108/108 49/107/107
f 52/114/114 12/112/112 13/111/111
s 19
f 12/118/118 51/117/117 53/116/116
f 11/119/119 53/116/116 47/115/115
f 11/119/119 12/118/118 53/116/116
s 20
f 50/120/120 44/124/124 40/123/123
f 40/123/123 48/122/122 54/121/121
f 40/123/123 54/121/121 50/120/120
s 21
f 26/126/126 53/127/127 51/128/128
f 51/128/128 52/129/129 21/130/130
f 21/130/130 22/125/125 51/128/128
f 22/125/125 26/126/126 51/128/128
s 22
f 20/131/131 21/132/132 52/133/133 49/134/134
s 23
f 50/139/139 54/140/140 24/135/135
f 20/137/137 49/138/138 50/139/139
f 50/139/139 19/136/136 20/137/137
f 50/139/139 24/135/135 19/136/136
s 24
f 28/141/141 24/142/142 54/143/143
f 28/141/141 48/144/144 55/146/146
f 48/144/144 45/145/145 55/146/146
f 28/141/141 54/143/143 48/144/144
s 25
f 27/147/147 28/148/148 55/149/149 56/150/150
s 26
f 45/151/151 46/152/152 56/153/153 55/154/154
s 27
f 53/160/160 26/155/155 27/156/156
f 27/156/156 56/157/157 47/159/159
f 56/157/157 46/158/158 47/159/159
f 47/159/159 53/160/160 27/156/156
s 28
f 37/164/164 33/163/163 29/162/162 36/161/161
s 29
f 58/168/168 57/167/167 30/166/166 31/165/165
s 30
f 58/172/172 31/171/171 32/170/170
f 59/173/173 32/170/170 34/169/169
f 34/169/169 61/175/175 60/174/174
f 34/169/169 38/176/176 61/175/175
f 60/174/174 59/173/173 34/169/169
f 59/173/173 58/172/172 32/170/170
s 31
f 62/180/180 61/179/179 38/178/178 35/177/177
s 32
f 65/186/186 64/185/185 66/187/187
f 61/182/182 62/181/181 66/187/187
f 60/183/183 61/182/182 66/187/187
f 63/184/184 60/183/183 66/187/187
f 64/185/185 63/184/184 66/187/187
f 62/181/181 65/186/186 66/187/187
s 33
f 64/191/191 65/190/190 68/189/189 67/188/188
s 34
f 67/192/192 68/193/193 69/194/194 70/195/195
s 35
f 71/196/196 67/197/197 70/198/198 72/199/199
s 36
f 59/200/200 71/201/201 72/202/202 73/203/203
s 37
f 75/207/207 74/206/206 73/205/205 72/204/204
s 38
f 74/208/208 75/209/209 80/214/214
f 78/212/212 79/213/213 80/214/214
f 77/211/211 78/212/212 80/214/214
f 76/210/210 77/211/211 80/214/214
f 75/209/209 76/210/210 80/214/214
f 79/213/213 74/208/208 80/214/214
s 39
f 79/218/218 78/217/217 82/216/216 81/215/215
s 40
f 78/222/222 77/221/221 69/220/220 82/219/219
s 41
f 74/226/226 79/225/225 81/224/224 73/223/223
s 42
f 76/230/230 75/229/229 72/228/228 70/227/227
s 43
f 77/234/234 76/233/233 70/232/232 69/231/231
s 44
f 68/235/235 57/236/236 82/237/237 69/238/238
s 45
f 63/242/242 64/241/241 67/240/240 71/239/239
s 46
f 60/246/246 63/245/245 71/244/244 59/243/243
s 47
f 58/247/247 59/248/248 73/249/249 81/250/250
s 48
f 57/251/251 58/252/252 81/253/253 82/254/254
s 49
f 29/262/262 30/261/261 57/260/260
f 36/255/255 29/262/262 68/259/259
f 68/259/259 65/258/258 36/255/255
f 65/258/258 62/257/257 36/255/255
f 62/257/257 35/256/256 36/255/255
f 29/262/262 57/260/260 68/259/259
